<svg width="25" height="25" viewBox="0 0 25 25" fill="none" xmlns="http://www.w3.org/2000/svg">
<mask id="mask0_1669_58" style="mask-type:alpha" maskUnits="userSpaceOnUse" x="0" y="0" width="25" height="25">
<rect x="0.5" y="0.5" width="24" height="24" fill="#D9D9D9"/>
</mask>
<g mask="url(#mask0_1669_58)">
<path d="M20.45 21.5C18.3 21.5 16.2043 21.0207 14.163 20.062C12.121 19.104 10.3127 17.8373 8.738 16.262C7.16267 14.6873 5.896 12.879 4.938 10.837C3.97933 8.79567 3.5 6.7 3.5 4.55C3.5 4.25 3.6 4 3.8 3.8C4 3.6 4.25 3.5 4.55 3.5H8.6C8.83333 3.5 9.04167 3.575 9.225 3.725C9.40833 3.875 9.51667 4.06667 9.55 4.3L10.2 7.8C10.2333 8.03333 10.2293 8.24567 10.188 8.437C10.146 8.629 10.05 8.8 9.9 8.95L7.475 11.4C8.175 12.6 9.05433 13.725 10.113 14.775C11.171 15.825 12.3333 16.7333 13.6 17.5L15.95 15.15C16.1 15 16.296 14.8873 16.538 14.812C16.7793 14.7373 17.0167 14.7167 17.25 14.75L20.7 15.45C20.9333 15.5 21.125 15.6123 21.275 15.787C21.425 15.9623 21.5 16.1667 21.5 16.4V20.45C21.5 20.75 21.4 21 21.2 21.2C21 21.4 20.75 21.5 20.45 21.5ZM6.525 9.5L8.175 7.85L7.75 5.5H5.525C5.60833 6.18333 5.725 6.85833 5.875 7.525C6.025 8.19167 6.24167 8.85 6.525 9.5ZM15.475 18.45C16.125 18.7333 16.7877 18.9583 17.463 19.125C18.1377 19.2917 18.8167 19.4 19.5 19.45V17.25L17.15 16.775L15.475 18.45Z" fill="#242424"/>
</g>
</svg>
