<svg width="24" height="24" viewBox="0 0 24 24" fill="none" xmlns="http://www.w3.org/2000/svg">
<mask id="mask0_1824_21" style="mask-type:alpha" maskUnits="userSpaceOnUse" x="0" y="0" width="25" height="24">
<rect x="0.000610352" width="24" height="24" fill="#D9D9D9"/>
</mask>
<g mask="url(#mask0_1824_21)">
<path d="M19.9506 21C17.8006 21 15.7049 20.5207 13.6636 19.562C11.6216 18.604 9.81328 17.3373 8.23861 15.762C6.66328 14.1873 5.39661 12.379 4.43861 10.337C3.47994 8.29567 3.00061 6.2 3.00061 4.05C3.00061 3.75 3.10061 3.5 3.30061 3.3C3.50061 3.1 3.75061 3 4.05061 3H8.10061C8.33394 3 8.54228 3.075 8.72561 3.225C8.90894 3.375 9.01728 3.56667 9.05061 3.8L9.70061 7.3C9.73394 7.53333 9.72994 7.74567 9.68861 7.937C9.64661 8.129 9.55061 8.3 9.40061 8.45L6.97561 10.9C7.67561 12.1 8.55494 13.225 9.61361 14.275C10.6716 15.325 11.8339 16.2333 13.1006 17L15.4506 14.65C15.6006 14.5 15.7966 14.3873 16.0386 14.312C16.2799 14.2373 16.5173 14.2167 16.7506 14.25L20.2006 14.95C20.4339 15 20.6256 15.1123 20.7756 15.287C20.9256 15.4623 21.0006 15.6667 21.0006 15.9V19.95C21.0006 20.25 20.9006 20.5 20.7006 20.7C20.5006 20.9 20.2506 21 19.9506 21ZM6.02561 9L7.67561 7.35L7.25061 5H5.02561C5.10894 5.68333 5.22561 6.35833 5.37561 7.025C5.52561 7.69167 5.74228 8.35 6.02561 9ZM14.9756 17.95C15.6256 18.2333 16.2883 18.4583 16.9636 18.625C17.6383 18.7917 18.3173 18.9 19.0006 18.95V16.75L16.6506 16.275L14.9756 17.95Z" fill="#242424"/>
</g>
</svg>
